:SAMPLES-PER-SECOND 30
:FULLY-SPECIFIED
:DEGREES
1
root  15.8756 38.9433 6.66993 110.029 -82.0607 -110.691
RightUpLeg  -4.62943 -4.04444 4.41607
RightLeg  12.2014 6.07131 1.59767
RightFoot  -7.84846 -0.078293 0.87926
RightToes  -1.81608e-008 0 -3.6325e-017
Spine  3.5632 -1.45694 5.76877
Spine1  -5.43178 -2.9284 12.3647
HEad  -4.31474 -3.5171 -4.75309
LeftShoulder1  0.193716 1.5521 -1.67
LeftArm  -21.2362 5.25326 -12.889
LeftForeArm  -6.20104 1.1784 2.77139
LeftHand  0.0154438 7.21774 3.20687
RightShoulder  0.0576648 -1.39073 -6.8818
RightArm  -9.40115 4.1906 7.26165
RightForeArm  -4.03142 -2.79845 -2.43588
RightHand  -0.0998028 6.13184 -1.34032
LeftUpLeg  2.38066 14.4738 25.6677
LeftLeg  -11.2269 30.904 -1.07508
LeftFoot  20.6983 3.02978 -10.9925
LeftToes  1.81866e-011 -6.13092e-011 2.52013e-011
2
root  15.8729 38.9433 6.66254 109.184 -82.074 -109.844
RightUpLeg  -4.60571 -4.05307 4.44356
RightLeg  12.176 5.97053 1.60087
RightFoot  -7.82339 -0.0772474 0.863032
RightToes  -1.81608e-008 0 -3.6325e-017
Spine  3.64259 -1.45694 5.88398
Spine1  -5.56347 -2.91441 12.3242
HEad  -4.07307 -4.03049 -4.61201
LeftShoulder1  0.200511 1.50547 -1.78892
LeftArm  -21.1183 5.09777 -12.6986
LeftForeArm  -6.27619 1.37583 2.71569
LeftHand  0.00959711 6.8858 3.31834
RightShoulder  0.0576697 -1.37442 -6.88927
RightArm  -9.48109 4.21218 7.31659
RightForeArm  -3.82109 -2.89716 -2.48049
RightHand  -0.0940762 6.44446 -1.26336
LeftUpLeg  2.3038 14.5013 25.6975
LeftLeg  -11.1683 30.7638 -1.03821
LeftFoot  20.7082 3.03321 -10.9806
LeftToes  1.81866e-011 -6.13092e-011 2.52013e-011
3
root  15.8648 38.9443 6.66458 108.149 -82.1262 -108.882
RightUpLeg  -4.50849 -4.06326 4.42634
RightLeg  12.1862 5.85698 1.56431
RightFoot  -7.86199 -0.0725221 0.789699
RightToes  -1.81608e-008 0 -3.6325e-017
Spine  3.81189 -1.45696 5.86792
Spine1  -5.74191 -2.89501 12.3825
HEad  -4.00897 -4.41468 -4.72675
LeftShoulder1  0.223049 1.30333 -1.91013
LeftArm  -20.9518 5.20565 -12.4206
LeftForeArm  -6.36509 1.26108 2.61529
LeftHand  0.00907294 6.98973 3.12923
RightShoulder  0.0576454 -1.28186 -6.81825
RightArm  -9.53653 4.02262 7.25555
RightForeArm  -3.74591 -2.74814 -2.51304
RightHand  -0.10898 6.46281 -1.40895
LeftUpLeg  2.32026 14.5144 25.7012
LeftLeg  -11.1257 30.5629 -1.00839
LeftFoot  20.6644 3.04107 -11.0275
LeftToes  1.81866e-011 -6.13092e-011 2.52013e-011
4
root  15.8565 38.9476 6.68523 107.523 -82.1992 -108.282
RightUpLeg  -4.47313 -4.10912 4.34136
RightLeg  12.2125 5.82082 1.55594
RightFoot  -7.8751 -0.0759358 0.842678
RightToes  -1.81608e-008 0 -3.6325e-017
Spine  3.80566 -1.44749 5.85607
Spine1  -5.68406 -2.88777 12.3421
HEad  -4.13562 -4.81986 -4.70354
LeftShoulder1  0.221986 1.28549 -1.76452
LeftArm  -21.0258 5.17247 -12.5934
LeftForeArm  -6.25225 1.25643 2.65291
LeftHand  0.0105023 7.29134 2.82566
RightShoulder  0.0577041 -1.30695 -6.767
RightArm  -9.44565 4.02345 7.2297
RightForeArm  -3.51231 -2.66346 -2.47625
RightHand  -0.106159 6.06865 -1.40758
LeftUpLeg  2.2892 14.4939 25.6242
LeftLeg  -11.081 30.5042 -0.999434
LeftFoot  20.6293 3.02303 -10.9769
LeftToes  1.81866e-011 -6.13092e-011 2.52013e-011
5
root  15.8408 38.9508 6.72025 106.97 -82.2688 -107.802
RightUpLeg  -4.2996 -4.21104 4.19534
RightLeg  12.0979 5.88031 1.57861
RightFoot  -7.90636 -0.0839059 0.966366
RightToes  -1.81608e-008 0 -3.6325e-017
Spine  3.79327 -1.42666 5.92347
Spine1  -5.62154 -2.84754 12.1554
HEad  -4.19874 -5.2223 -4.67134
LeftShoulder1  0.23768 1.09715 -1.61401
LeftArm  -21.1765 5.23831 -12.7457
LeftForeArm  -6.0861 1.22723 2.74261
LeftHand  0.0152023 7.57899 2.78275
RightShoulder  0.0579521 -1.36638 -6.67788
RightArm  -9.36588 4.04098 7.17995
RightForeArm  -3.65916 -2.66221 -2.43738
RightHand  -0.106069 5.94313 -1.41711
LeftUpLeg  2.35844 14.4652 25.549
LeftLeg  -11.0567 30.3695 -0.985336
LeftFoot  20.5428 3.04784 -11.0923
LeftToes  1.81866e-011 -6.13092e-011 2.52013e-011
